<svg width="717" height="101" viewBox="0 0 717 101" fill="none" xmlns="http://www.w3.org/2000/svg">
<path fill-rule="evenodd" clip-rule="evenodd" d="M29 0.5C29 0.778 27.6665 1 26 1C24.3335 1 23 1.222 23 1.5C23 1.775 22.1 2 21 2C19.9 2 19 2.225 19 2.5C19 2.775 18.55 3 18 3C17.45 3 17 3.225 17 3.5C17 3.775 16.5995 4 16.1105 4C15.621 4 14.8965 4.45 14.5 5C14.1035 5.55 13.4865 6 13.129 6C12.3345 6 7 11.256 7 12.0385C7 12.3465 6.325 13.2295 5.5 14C4.675 14.7705 4 15.761 4 16.2005C4 16.6405 3.775 17 3.5 17C3.225 17 3 17.45 3 18C3 18.55 2.775 19 2.5 19C2.225 19 2 19.675 2 20.5C2 21.325 1.775 22 1.5 22C1.225 22 1 22.9 1 24C1 25.1 0.775 26 0.5 26C0.1735 26 0 34.5 0 50.5C0 66.5 0.1735 75 0.5 75C0.775 75 1 75.9 1 77C1 78.1 1.225 79 1.5 79C1.775 79 2 79.675 2 80.5C2 81.325 2.225 82 2.5 82C2.775 82 3 82.45 3 83C3 83.55 3.225 84 3.5 84C3.775 84 4 84.45 4 85C4 85.55 4.225 86 4.5 86C4.775 86 5 86.3405 5 86.757C5 87.744 13.256 96 14.243 96C14.6595 96 15 96.225 15 96.5C15 96.775 15.45 97 16 97C16.55 97 17 97.225 17 97.5C17 97.775 17.45 98 18 98C18.55 98 19 98.225 19 98.5C19 98.775 19.675 99 20.5 99C21.325 99 22 99.225 22 99.5C22 99.775 23.125 100 24.5 100C25.875 100 27 100.225 27 100.5C27 100.819 31.1665 101 38.5 101C45.8335 101 50 100.819 50 100.5C50 100.225 51.125 100 52.5 100C53.875 100 55 99.775 55 99.5C55 99.225 55.675 99 56.5 99C57.325 99 58 98.775 58 98.5C58 98.225 58.45 98 59 98C59.55 98 60 97.775 60 97.5C60 97.225 60.45 97 61 97C61.55 97 62 96.775 62 96.5C62 96.225 62.3405 96 62.757 96C63.6775 96 72 87.777 72 86.8675C72 86.512 72.45 85.8965 73 85.5C73.55 85.1035 74 84.379 74 83.8895C74 83.4005 74.225 83 74.5 83C74.775 83 75 82.325 75 81.5C75 80.675 75.225 80 75.5 80C75.775 80 76 79.325 76 78.5C76 77.675 76.225 77 76.5 77C76.8245 77 77 70.3335 77 58V39H61.5C47.387 39 44.5325 39.232 46.625 40.2085C47.125 40.4415 47.125 40.5585 46.625 40.7915C46.1595 41.009 46 43.3555 46 50C46 56.6645 46.158 58.9805 46.625 59.1705C47.1045 59.365 47.0855 59.5385 46.544 59.9165C45.9425 60.336 45.9555 60.527 46.633 61.2045C47.199 61.7705 48.377 62 50.7145 62H54V67.7665V73.5335L52.2665 75.2665C51.3135 76.22 50.1885 77 49.7665 77C49.345 77 49 77.225 49 77.5C49 77.8165 45.3335 78 39 78C32.6665 78 29 77.8165 29 77.5C29 77.225 28.55 77 28 77C27.45 77 27 76.775 27 76.5C27 76.225 26.6465 76 26.2145 76C25.204 76 24 74.796 24 73.7855C24 73.3535 23.775 73 23.5 73C23.174 73 23 65.3335 23 51C23 36.6665 23.174 29 23.5 29C23.775 29 24 28.55 24 28C24 27.45 24.225 27 24.5 27C24.775 27 25 26.55 25 26C25 25.3335 25.3335 25 26 25C26.55 25 27 24.775 27 24.5C27 24.225 27.675 24 28.5 24C29.325 24 30 23.775 30 23.5C30 23.185 33.3335 23 39 23C44.6665 23 48 23.185 48 23.5C48 23.775 48.45 24 49 24C49.55 24 50 24.225 50 24.5C50 24.775 50.3535 25 50.7855 25C51.218 25 51.893 25.3215 52.2855 25.7145C52.6785 26.107 53 26.782 53 27.2145C53 27.6465 53.225 28 53.5 28C53.775 28 54 28.675 54 29.5V31H65.5H77V27.5C77 25.5 76.7855 24 76.5 24C76.225 24 76 23.325 76 22.5C76 21.675 75.775 21 75.5 21C75.225 21 75 20.3745 75 19.6105C75 18.7945 74.587 17.9235 74 17.5C73.45 17.1035 73 16.379 73 15.8895C73 15.4005 72.775 15 72.5 15C72.225 15 72 14.6595 72 14.243C72 13.256 63.744 5 62.757 5C62.3405 5 62 4.775 62 4.5C62 4.225 61.55 4 61 4C60.45 4 60 3.775 60 3.5C60 3.225 59.55 3 59 3C58.45 3 58 2.775 58 2.5C58 2.225 57.1 2 56 2C54.9 2 54 1.775 54 1.5C54 1.222 52.6665 1 51 1C49.3335 1 48 0.778 48 0.5C48 0.184 44.5 0 38.5 0C32.5 0 29 0.184 29 0.5ZM110 1C110 1.55 109.775 2 109.5 2C109.225 2 109 2.675 109 3.5C109 4.325 108.775 5 108.5 5C108.225 5 108 5.9 108 7C108 8.1 107.775 9 107.5 9C107.225 9 107 9.9 107 11C107 12.1 106.775 13 106.5 13C106.225 13 106 13.9 106 15C106 16.1 105.775 17 105.5 17C105.225 17 105 17.675 105 18.5C105 19.325 104.775 20 104.5 20C104.225 20 104 20.9 104 22C104 23.1 103.775 24 103.5 24C103.225 24 103 24.9 103 26C103 27.1 102.775 28 102.5 28C102.225 28 102 28.9 102 30C102 31.1 101.775 32 101.5 32C101.225 32 101 32.675 101 33.5C101 34.325 100.775 35 100.5 35C100.225 35 100 35.9 100 37C100 38.1 99.775 39 99.5 39C99.225 39 99 39.9 99 41C99 42.1 98.775 43 98.5 43C98.225 43 98 43.9 98 45C98 46.1 97.775 47 97.5 47C97.225 47 97 47.675 97 48.5C97 49.325 96.775 50 96.5 50C96.225 50 96 50.9 96 52C96 53.1 95.775 54 95.5 54C95.225 54 95 54.9 95 56C95 57.1 94.775 58 94.5 58C94.225 58 94 58.9 94 60C94 61.1 93.775 62 93.5 62C93.225 62 93 62.9 93 64C93 65.1 92.775 66 92.5 66C92.225 66 92 66.675 92 67.5C92 68.325 91.775 69 91.5 69C91.225 69 91 69.9 91 71C91 72.1 90.775 73 90.5 73C90.225 73 90 73.9 90 75C90 76.1 89.775 77 89.5 77C89.225 77 89 77.675 89 78.5C89 79.325 88.775 80 88.5 80C88.225 80 88 80.9 88 82C88 83.1 87.775 84 87.5 84C87.225 84 87 84.9 87 86C87 87.1 86.775 88 86.5 88C86.225 88 86 88.675 86 89.5C86 90.325 85.775 91 85.5 91C85.225 91 85 91.9 85 93C85 94.1 84.775 95 84.5 95C84.225 95 84 95.9 84 97C84 98.1 83.775 99 83.5 99C83.225 99 83 99.45 83 100C83 100.97 83.3335 101 94.2855 101C106.83 101 107 100.957 107 97.7855C107 96.8035 107.225 96 107.5 96C107.775 96 108 95.1 108 94C108 92.9 108.225 92 108.5 92C108.775 92 109 91.1 109 90C109 88.9 109.225 88 109.5 88C109.775 88 110 87.325 110 86.5C110 85.675 110.225 85 110.5 85C110.775 85 111 84.1 111 83C111 81.9 111.225 81 111.5 81C111.775 81 112 80.1 112 79C112 77.9 112.225 77 112.5 77C112.775 77 113 76.325 113 75.5C113 74.675 113.225 74 113.5 74C113.775 74 114 73.1 114 72C114 70.9 114.225 70 114.5 70C114.775 70 115 69.1 115 68C115 66.9 115.225 66 115.5 66C115.775 66 116 65.325 116 64.5C116 63.675 116.225 63 116.5 63C116.775 63 117 62.1 117 61C117 59.9 117.225 59 117.5 59C117.775 59 118 58.1 118 57C118 55.9 118.225 55 118.5 55C118.775 55 119 54.325 119 53.5C119 52.675 119.225 52 119.5 52C119.775 52 120 51.1 120 50C120 48.9 120.225 48 120.5 48C120.775 48 121 47.325 121 46.5C121 45.675 121.225 45 121.5 45C121.775 45 122 45.45 122 46C122 46.55 122.225 47 122.5 47C122.775 47 123 47.675 123 48.5C123 49.325 123.225 50 123.5 50C123.775 50 124 50.9 124 52C124 53.1 124.225 54 124.5 54C124.775 54 125 54.9 125 56C125 57.1 125.225 58 125.5 58C125.775 58 126 58.675 126 59.5C126 60.325 126.225 61 126.5 61C126.775 61 127 61.9 127 63C127 64.1 127.225 65 127.5 65C127.775 65 128 65.9 128 67C128 68.1 128.225 69 128.5 69C128.775 69 129 69.675 129 70.5C129 71.325 129.225 72 129.5 72C129.775 72 130 72.9 130 74C130 75.1 130.225 76 130.5 76C130.775 76 131 76.9 131 78C131 79.1 131.225 80 131.5 80C131.775 80 132 80.9 132 82C132 83.1 132.225 84 132.5 84C132.775 84 133 84.675 133 85.5C133 86.325 133.225 87 133.5 87C133.775 87 134 87.9 134 89C134 90.1 134.225 91 134.5 91C134.775 91 135 91.9 135 93C135 94.1 135.225 95 135.5 95C135.775 95 136 95.675 136 96.5C136 97.325 136.225 98 136.5 98C136.775 98 137 98.675 137 99.5V101H148.5H160V99C160 97.9 159.775 97 159.5 97C159.225 97 159 96.325 159 95.5C159 94.675 158.775 94 158.5 94C158.225 94 158 93.1 158 92C158 90.9 157.775 90 157.5 90C157.225 90 157 89.1 157 88C157 86.9 156.775 86 156.5 86C156.225 86 156 85.1 156 84C156 82.9 155.775 82 155.5 82C155.225 82 155 81.325 155 80.5C155 79.675 154.775 79 154.5 79C154.225 79 154 78.1 154 77C154 75.9 153.775 75 153.5 75C153.225 75 153 74.1 153 73C153 71.9 152.775 71 152.5 71C152.225 71 152 70.325 152 69.5C152 68.675 151.775 68 151.5 68C151.225 68 151 67.1 151 66C151 64.9 150.775 64 150.5 64C150.225 64 150 63.1 150 62C150 60.9 149.775 60 149.5 60C149.225 60 149 59.1 149 58C149 56.9 148.775 56 148.5 56C148.225 56 148 55.1 148 54C148 52.9 147.775 52 147.5 52C147.225 52 147 51.325 147 50.5C147 49.675 146.775 49 146.5 49C146.225 49 146 48.1 146 47C146 45.9 145.775 45 145.5 45C145.225 45 145 44.1 145 43C145 41.9 144.775 41 144.5 41C144.225 41 144 40.325 144 39.5C144 38.675 143.775 38 143.5 38C143.225 38 143 37.1 143 36C143 34.9 142.775 34 142.5 34C142.225 34 142 33.1 142 32C142 30.9 141.775 30 141.5 30C141.225 30 141 29.1 141 28C141 26.9 140.775 26 140.5 26C140.225 26 140 25.325 140 24.5C140 23.675 139.775 23 139.5 23C139.225 23 139 22.1 139 21C139 19.9 138.775 19 138.5 19C138.225 19 138 18.1 138 17C138 15.9 137.775 15 137.5 15C137.225 15 137 14.325 137 13.5C137 12.675 136.775 12 136.5 12C136.225 12 136 11.1 136 10C136 8.9 135.775 8 135.5 8C135.225 8 135 7.1 135 6C135 4.9 134.775 4 134.5 4C134.225 4 134 3.1 134 2V0H122C110.333 0 110 0.028 110 1ZM224 0.5C224 0.778 222.666 1 221 1C219.334 1 218 1.222 218 1.5C218 1.775 217.1 2 216 2C214.9 2 214 2.225 214 2.5C214 2.775 213.6 3 213.111 3C212.621 3 211.896 3.45 211.5 4C211.104 4.55 210.379 5 209.889 5C209.4 5 209 5.225 209 5.5C209 5.775 208.657 6 208.239 6C207.366 6 202 11.1935 202 12.0385C202 12.3465 201.325 13.2295 200.5 14C199.675 14.7705 199 15.761 199 16.2005C199 16.6405 198.775 17 198.5 17C198.225 17 198 17.45 198 18C198 18.55 197.775 19 197.5 19C197.225 19 197 19.675 197 20.5C197 21.325 196.775 22 196.5 22C196.225 22 196 22.9 196 24C196 25.1 195.775 26 195.5 26C195.171 26 195 38.8335 195 63.5V101H206.5H218V81.5V62H245H272V50.5V39H245H218V34C218 31 218.2 29 218.5 29C218.775 29 219 28.655 219 28.2335C219 26.9735 222.325 24 223.734 24C224.43 24 225 23.775 225 23.5C225 23.174 233.167 23 248.5 23H272V11.5V0H248C232.333 0 224 0.1735 224 0.5ZM278 50.5V101H289.5H301V50.5V0H289.5H278V50.5ZM336 0.5C336 0.778 334.666 1 333 1C331.334 1 330 1.222 330 1.5C330 1.775 329.1 2 328 2C326.9 2 326 2.225 326 2.5C326 2.775 325.6 3 325.111 3C324.621 3 323.896 3.45 323.5 4C323.104 4.55 322.379 5 321.889 5C321.4 5 321 5.225 321 5.5C321 5.775 320.658 6 320.239 6C319.366 6 314 11.1935 314 12.0385C314 12.3465 313.325 13.2295 312.5 14C311.675 14.7705 311 15.761 311 16.2005C311 16.6405 310.775 17 310.5 17C310.225 17 310 17.45 310 18C310 18.55 309.775 19 309.5 19C309.225 19 309 19.675 309 20.5C309 21.325 308.775 22 308.5 22C308.225 22 308 22.9 308 24C308 25.1 307.775 26 307.5 26C307.171 26 307 38.8335 307 63.5V101H318.5H330V65C330 41.3335 330.171 29 330.5 29C330.775 29 331 28.55 331 28C331 27.45 331.225 27 331.5 27C331.775 27 332 26.55 332 26C332 25.3335 332.334 25 333 25C333.55 25 334 24.775 334 24.5C334 24.225 334.45 24 335 24C335.55 24 336 23.775 336 23.5C336 23.184 339.5 23 345.5 23C351.5 23 355 23.184 355 23.5C355 23.775 355.572 24 356.272 24C357.676 24 360 26.0125 360 27.2275C360 27.6525 360.225 28 360.5 28C360.829 28 361 40.5 361 64.5V101H372.5H384V62.5C384 37.1665 383.829 24 383.5 24C383.225 24 383 23.325 383 22.5C383 21.675 382.775 21 382.5 21C382.225 21 382 20.3745 382 19.6105C382 18.7945 381.587 17.9235 381 17.5C380.45 17.1035 380 16.379 380 15.8895C380 15.4005 379.775 15 379.5 15C379.225 15 379 14.659 379 14.242C379 13.32 371.778 6 370.868 6C370.512 6 369.896 5.55 369.5 5C369.104 4.45 368.379 4 367.889 4C367.4 4 367 3.775 367 3.5C367 3.225 366.55 3 366 3C365.45 3 365 2.775 365 2.5C365 2.225 364.325 2 363.5 2C362.675 2 362 1.775 362 1.5C362 1.2145 360.5 1 358.5 1C356.5 1 355 0.7855 355 0.5C355 0.184 351.5 0 345.5 0C339.5 0 336 0.184 336 0.5ZM417 1C417 1.55 416.775 2 416.5 2C416.225 2 416 2.9 416 4C416 5.1 415.775 6 415.5 6C415.225 6 415 6.675 415 7.5C415 8.325 414.775 9 414.5 9C414.225 9 414 9.9 414 11C414 12.1 413.775 13 413.5 13C413.225 13 413 13.9 413 15C413 16.1 412.775 17 412.5 17C412.225 17 412 17.9 412 19C412 20.1 411.775 21 411.5 21C411.225 21 411 21.675 411 22.5C411 23.325 410.775 24 410.5 24C410.225 24 410 24.9 410 26C410 27.1 409.775 28 409.5 28C409.225 28 409 28.9 409 30C409 31.1 408.775 32 408.5 32C408.225 32 408 32.9 408 34C408 35.1 407.775 36 407.5 36C407.225 36 407 36.675 407 37.5C407 38.325 406.775 39 406.5 39C406.225 39 406 39.9 406 41C406 42.1 405.775 43 405.5 43C405.225 43 405 43.9 405 45C405 46.1 404.775 47 404.5 47C404.225 47 404 47.9 404 49C404 50.1 403.775 51 403.5 51C403.225 51 403 51.675 403 52.5C403 53.325 402.775 54 402.5 54C402.225 54 402 54.9 402 56C402 57.1 401.775 58 401.5 58C401.225 58 401 58.9 401 60C401 61.1 400.775 62 400.5 62C400.225 62 400 62.9 400 64C400 65.1 399.775 66 399.5 66C399.225 66 399 66.675 399 67.5C399 68.325 398.775 69 398.5 69C398.225 69 398 69.9 398 71C398 72.1 397.775 73 397.5 73C397.225 73 397 73.9 397 75C397 76.1 396.775 77 396.5 77C396.225 77 396 77.675 396 78.5C396 79.325 395.775 80 395.5 80C395.225 80 395 80.9 395 82C395 83.1 394.775 84 394.5 84C394.225 84 394 84.9 394 86C394 87.1 393.775 88 393.5 88C393.225 88 393 88.9 393 90C393 91.1 392.775 92 392.5 92C392.225 92 392 92.675 392 93.5C392 94.325 391.775 95 391.5 95C391.225 95 391 95.9 391 97C391 98.1 390.775 99 390.5 99C390.225 99 390 99.45 390 100C390 100.97 390.333 101 401.285 101C413.83 101 414 100.957 414 97.7855C414 96.8035 414.225 96 414.5 96C414.775 96 415 95.1 415 94C415 92.9 415.225 92 415.5 92C415.775 92 416 91.325 416 90.5C416 89.675 416.225 89 416.5 89C416.775 89 417 88.1 417 87C417 85.9 417.225 85 417.5 85C417.775 85 418 84.1 418 83C418 81.9 418.225 81 418.5 81C418.775 81 419 80.325 419 79.5C419 78.675 419.225 78 419.5 78C419.775 78 420 77.1 420 76C420 74.9 420.225 74 420.5 74C420.775 74 421 73.1 421 72C421 70.9 421.225 70 421.5 70C421.775 70 422 69.1 422 68C422 66.9 422.225 66 422.5 66C422.775 66 423 65.325 423 64.5C423 63.675 423.225 63 423.5 63C423.775 63 424 62.1 424 61C424 59.9 424.225 59 424.5 59C424.775 59 425 58.325 425 57.5C425 56.675 425.225 56 425.5 56C425.775 56 426 55.1 426 54C426 52.9 426.225 52 426.5 52C426.775 52 427 51.1 427 50C427 48.9 427.225 48 427.5 48C427.775 48 428 47.325 428 46.5C428 45.675 428.128 45 428.285 45C429.122 45 430 46.6465 430 48.2145C430 49.1965 430.225 50 430.5 50C430.775 50 431 50.9 431 52C431 53.1 431.225 54 431.5 54C431.775 54 432 54.9 432 56C432 57.1 432.225 58 432.5 58C432.775 58 433 58.675 433 59.5C433 60.325 433.225 61 433.5 61C433.775 61 434 61.9 434 63C434 64.1 434.225 65 434.5 65C434.775 65 435 65.9 435 67C435 68.1 435.225 69 435.5 69C435.775 69 436 69.675 436 70.5C436 71.325 436.225 72 436.5 72C436.775 72 437 72.9 437 74C437 75.1 437.225 76 437.5 76C437.775 76 438 76.9 438 78C438 79.1 438.225 80 438.5 80C438.775 80 439 80.675 439 81.5C439 82.325 439.225 83 439.5 83C439.775 83 440 83.9 440 85C440 86.1 440.225 87 440.5 87C440.775 87 441 87.9 441 89C441 90.1 441.225 91 441.5 91C441.775 91 442 91.675 442 92.5C442 93.325 442.225 94 442.5 94C442.775 94 443 94.9 443 96C443 97.1 443.225 98 443.5 98C443.775 98 444 98.675 444 99.5V101H455.5H467V99C467 97.9 466.775 97 466.5 97C466.225 97 466 96.1 466 95C466 93.9 465.775 93 465.5 93C465.225 93 465 92.325 465 91.5C465 90.675 464.775 90 464.5 90C464.225 90 464 89.1 464 88C464 86.9 463.775 86 463.5 86C463.225 86 463 85.1 463 84C463 82.9 462.775 82 462.5 82C462.225 82 462 81.1 462 80C462 78.9 461.775 78 461.5 78C461.225 78 461 77.325 461 76.5C461 75.675 460.775 75 460.5 75C460.225 75 460 74.1 460 73C460 71.9 459.775 71 459.5 71C459.225 71 459 70.1 459 69C459 67.9 458.775 67 458.5 67C458.225 67 458 66.325 458 65.5C458 64.675 457.775 64 457.5 64C457.225 64 457 63.1 457 62C457 60.9 456.775 60 456.5 60C456.225 60 456 59.1 456 58C456 56.9 455.775 56 455.5 56C455.225 56 455 55.1 455 54C455 52.9 454.775 52 454.5 52C454.225 52 454 51.325 454 50.5C454 49.675 453.775 49 453.5 49C453.225 49 453 48.1 453 47C453 45.9 452.775 45 452.5 45C452.225 45 452 44.1 452 43C452 41.9 451.775 41 451.5 41C451.225 41 451 40.1 451 39C451 37.9 450.775 37 450.5 37C450.225 37 450 36.325 450 35.5C450 34.675 449.775 34 449.5 34C449.225 34 449 33.1 449 32C449 30.9 448.775 30 448.5 30C448.225 30 448 29.1 448 28C448 26.9 447.775 26 447.5 26C447.225 26 447 25.325 447 24.5C447 23.675 446.775 23 446.5 23C446.225 23 446 22.1 446 21C446 19.9 445.775 19 445.5 19C445.225 19 445 18.1 445 17C445 15.9 444.775 15 444.5 15C444.225 15 444 14.1 444 13C444 11.9 443.775 11 443.5 11C443.225 11 443 10.325 443 9.5C443 8.675 442.775 8 442.5 8C442.225 8 442 7.1 442 6C442 4.9 441.775 4 441.5 4C441.225 4 441 3.4215 441 2.7145C441 0.104501 440.511 0 428.285 0C417.333 0 417 0.0295 417 1ZM502 0.5C502 0.778 500.666 1 499 1C497.334 1 496 1.222 496 1.5C496 1.775 495.325 2 494.5 2C493.675 2 493 2.225 493 2.5C493 2.775 492.55 3 492 3C491.45 3 491 3.225 491 3.5C491 3.775 490.55 4 490 4C489.45 4 489 4.225 489 4.5C489 4.775 488.641 5 488.201 5C487.761 5 486.771 5.675 486 6.5C485.229 7.325 484.344 8 484.032 8C483.247 8 480 11.32 480 12.123C480 12.484 479.55 13.1035 479 13.5C478.45 13.8965 478 14.5715 478 15C478 15.4285 477.55 16.1035 477 16.5C476.413 16.9235 476 17.7945 476 18.6105C476 19.3745 475.775 20 475.5 20C475.225 20 475 20.675 475 21.5C475 22.325 474.775 23 474.5 23C474.225 23 474 24.125 474 25.5C474 26.875 473.775 28 473.5 28C473.171 28 473 40.5 473 64.5V101H484.5H496V65C496 41.3335 496.171 29 496.5 29C496.775 29 497 28.655 497 28.2335C497 26.9735 500.325 24 501.734 24C502.43 24 503 23.775 503 23.5C503 23.185 506.333 23 512 23C517.667 23 521 23.185 521 23.5C521 23.775 521.57 24 522.266 24C523.045 24 524.201 24.668 525.266 25.7335L527 27.4665V64.2335V101H539H551V66.5C551 43.8335 550.829 32 550.5 32C550.208 32 550 30.3335 550 28C550 25.6665 549.792 24 549.5 24C549.225 24 549 23.325 549 22.5C549 21.675 548.775 21 548.5 21C548.225 21 548 20.325 548 19.5C548 18.675 547.775 18 547.5 18C547.225 18 547 17.5995 547 17.1105C547 16.621 546.55 15.8965 546 15.5C545.45 15.1035 545 14.488 545 14.1325C545 13.223 536.678 5 535.757 5C535.341 5 535 4.775 535 4.5C535 4.225 534.55 4 534 4C533.45 4 533 3.775 533 3.5C533 3.225 532.55 3 532 3C531.45 3 531 2.775 531 2.5C531 2.225 530.325 2 529.5 2C528.675 2 528 1.775 528 1.5C528 1.222 526.666 1 525 1C523.334 1 522 0.778 522 0.5C522 0.1835 518.333 0 512 0C505.667 0 502 0.1835 502 0.5ZM585 0.5C585 0.778 583.666 1 582 1C580.334 1 579 1.222 579 1.5C579 1.775 578.325 2 577.5 2C576.675 2 576 2.225 576 2.5C576 2.775 575.55 3 575 3C574.45 3 574 3.225 574 3.5C574 3.775 573.55 4 573 4C572.45 4 572 4.225 572 4.5C572 4.775 571.645 5 571.211 5C570.776 5 569.557 5.9 568.5 7C567.443 8.1 566.319 9 566.003 9C565.256 9 564 10.263 564 11.0135C564 11.3355 563.325 12.2295 562.5 13C561.675 13.7705 561 14.761 561 15.2005C561 15.6405 560.775 16 560.5 16C560.225 16 560 16.45 560 17C560 17.55 559.775 18 559.5 18C559.225 18 559 18.45 559 19C559 19.55 558.775 20 558.5 20C558.225 20 558 20.675 558 21.5C558 22.325 557.775 23 557.5 23C557.222 23 557 24.3335 557 26C557 27.6665 556.778 29 556.5 29C556.225 29 556 29.9 556 31C556 32.1 556.225 33 556.5 33C556.778 33 557 34.3335 557 36C557 37.6665 557.222 39 557.5 39C557.775 39 558 39.9 558 41C558 42.1 558.225 43 558.5 43C558.775 43 559 43.45 559 44C559 44.55 559.225 45 559.5 45C559.775 45 560 45.4005 560 45.8895C560 46.379 560.45 47.1035 561 47.5C561.55 47.8965 562 48.513 562 48.8695C562 49.715 568.285 56 569.13 56C569.487 56 570.104 56.45 570.5 57C570.896 57.55 571.621 58 572.11 58C572.599 58 573 58.225 573 58.5C573 58.775 573.45 59 574 59C574.55 59 575 59.225 575 59.5C575 59.775 575.675 60 576.5 60C577.325 60 578 60.225 578 60.5C578 60.775 578.675 61 579.5 61C580.325 61 581 61.225 581 61.5C581 61.8195 585.333 62 593 62C600.667 62 605 62.1805 605 62.5C605 62.775 605.345 63 605.766 63C606.188 63 607.313 63.78 608.266 64.7335C609.917 66.384 610 66.635 610 70C610 73.365 609.917 73.616 608.266 75.2665C607.313 76.22 606.188 77 605.766 77C605.345 77 605 77.225 605 77.5C605 77.8265 596.5 78 580.5 78H556V89.5V101H581C597.333 101 606 100.826 606 100.5C606 100.225 607.125 100 608.5 100C609.875 100 611 99.775 611 99.5C611 99.225 611.851 99 612.89 99C614.206 99 614.998 98.6965 615.5 98C615.896 97.45 616.621 97 617.11 97C617.599 97 618 96.775 618 96.5C618 96.225 618.359 96 618.799 96C619.239 96 620.229 95.325 621 94.5C621.771 93.675 622.665 93 622.987 93C623.737 93 625 91.7435 625 90.9965C625 90.6805 625.9 89.557 627 88.5C628.1 87.443 629 86.2235 629 85.789C629 85.355 629.225 85 629.5 85C629.775 85 630 84.55 630 84C630 83.45 630.225 83 630.5 83C630.775 83 631 82.55 631 82C631 81.45 631.225 81 631.5 81C631.775 81 632 80.325 632 79.5C632 78.675 632.225 78 632.5 78C632.785 78 633 76.5 633 74.5C633 72.5 633.215 71 633.5 71C633.775 71 634 70.55 634 70C634 69.45 633.775 69 633.5 69C633.215 69 633 67.5 633 65.5C633 63.5 632.785 62 632.5 62C632.225 62 632 61.325 632 60.5C632 59.675 631.775 59 631.5 59C631.225 59 631 58.55 631 58C631 57.45 630.775 57 630.5 57C630.225 57 630 56.55 630 56C630 55.45 629.775 55 629.5 55C629.225 55 629 54.645 629 54.211C629 53.7765 628.1 52.557 627 51.5C625.9 50.443 625 49.3255 625 49.0165C625 48.236 622.689 46 621.883 46C621.519 46 620.896 45.55 620.5 45C620.104 44.45 619.428 44 619 44C618.572 44 617.896 43.55 617.5 43C617.104 42.45 616.379 42 615.89 42C615.401 42 615 41.775 615 41.5C615 41.225 614.325 41 613.5 41C612.675 41 612 40.775 612 40.5C612 40.225 610.875 40 609.5 40C608.125 40 607 39.775 607 39.5C607 39.1815 602.87 39 595.61 39C584.794 39 584.184 38.9495 583.5 38C583.104 37.45 582.379 37 581.89 37C581.334 37 581 36.6255 581 36C581 35.45 580.775 35 580.5 35C580.225 35 580 34.55 580 34C580 33.45 579.775 33 579.5 33C579.225 33 579 32.325 579 31.5C579 30.675 579.225 30 579.5 30C579.775 30 580 29.43 580 28.7335C580 27.0445 583.045 24 584.734 24C585.43 24 586 23.775 586 23.5C586 23.177 591.667 23 602 23H618V11.5V0H601.5C590.833 0 585 0.177 585 0.5ZM668 0.5C668 0.778 666.666 1 665 1C663.334 1 662 1.222 662 1.5C662 1.775 661.325 2 660.5 2C659.675 2 659 2.225 659 2.5C659 2.775 658.55 3 658 3C657.45 3 657 3.225 657 3.5C657 3.775 656.55 4 656 4C655.45 4 655 4.225 655 4.5C655 4.775 654.645 5 654.211 5C653.776 5 652.557 5.9 651.5 7C650.443 8.1 649.224 9 648.789 9C648.355 9 648 9.355 648 9.789C648 10.2235 647.1 11.443 646 12.5C644.9 13.557 644 14.7765 644 15.211C644 15.645 643.775 16 643.5 16C643.225 16 643 16.45 643 17C643 17.55 642.775 18 642.5 18C642.225 18 642 18.45 642 19C642 19.55 641.775 20 641.5 20C641.225 20 641 20.675 641 21.5C641 22.325 640.775 23 640.5 23C640.215 23 640 24.5 640 26.5C640 28.5 639.785 30 639.5 30C639.175 30 639 37.1665 639 50.5C639 63.8335 639.175 71 639.5 71C639.785 71 640 72.5 640 74.5C640 76.5 640.215 78 640.5 78C640.775 78 641 78.675 641 79.5C641 80.325 641.225 81 641.5 81C641.775 81 642 81.45 642 82C642 82.55 642.225 83 642.5 83C642.775 83 643 83.45 643 84C643 84.55 643.225 85 643.5 85C643.775 85 644 85.45 644 86C644 86.55 644.225 87 644.5 87C644.775 87 645 87.3425 645 87.761C645 88.634 650.194 94 651.039 94C651.347 94 652.229 94.675 653 95.5C653.771 96.325 654.761 97 655.201 97C655.641 97 656 97.225 656 97.5C656 97.775 656.45 98 657 98C657.55 98 658 98.225 658 98.5C658 98.775 658.675 99 659.5 99C660.325 99 661 99.225 661 99.5C661 99.775 662.125 100 663.5 100C664.875 100 666 100.225 666 100.5C666 100.827 674.833 101 691.5 101H717V89.5V78H692.5C676.5 78 668 77.8265 668 77.5C668 77.225 667.55 77 667 77C666.45 77 666 76.775 666 76.5C666 76.225 665.55 76 665 76C664.334 76 664 75.6665 664 75C664 74.45 663.775 74 663.5 74C663.225 74 663 73.325 663 72.5C663 71.675 662.775 71 662.5 71C661.682 71 661.874 63.5545 662.714 62.7145C663.315 62.113 667.666 62 690.214 62H717V50.5V39H689.5H662V34.5C662 31.8335 662.204 30 662.5 30C662.775 30 663 29.43 663 28.7335C663 26.753 666.044 24 668.234 24C669.205 24 670 23.775 670 23.5C670 23.174 678.167 23 693.5 23H717V11.5V0H692.5C676.5 0 668 0.1735 668 0.5Z" fill="#233740"/>
</svg>
